<svg width="20" height="21" viewBox="0 0 20 21" fill="none" xmlns="http://www.w3.org/2000/svg">
<path d="M2.5 19.0475L1.78089 18.8345C1.71368 19.0614 1.75748 19.3067 1.89906 19.4963C2.04063 19.6859 2.26338 19.7975 2.5 19.7975L2.5 19.0475ZM17.5 19.0475V19.7975C17.7366 19.7975 17.9594 19.6859 18.1009 19.4963C18.2425 19.3067 18.2863 19.0614 18.2191 18.8345L17.5 19.0475ZM13.4167 6.54753C13.4167 8.4345 11.887 9.96419 10 9.96419V11.4642C12.7154 11.4642 14.9167 9.26293 14.9167 6.54753H13.4167ZM10 9.96419C8.11303 9.96419 6.58333 8.4345 6.58333 6.54753H5.08333C5.08333 9.26293 7.2846 11.4642 10 11.4642V9.96419ZM6.58333 6.54753C6.58333 4.66055 8.11303 3.13086 10 3.13086V1.63086C7.2846 1.63086 5.08333 3.83213 5.08333 6.54753H6.58333ZM10 3.13086C11.887 3.13086 13.4167 4.66055 13.4167 6.54753H14.9167C14.9167 3.83213 12.7154 1.63086 10 1.63086V3.13086ZM3.21911 19.2606C4.13629 16.1644 6.84667 13.9642 10 13.9642V12.4642C6.11463 12.4642 2.86681 15.1688 1.78089 18.8345L3.21911 19.2606ZM10 13.9642C13.1533 13.9642 15.8637 16.1644 16.7809 19.2606L18.2191 18.8345C17.1332 15.1688 13.8854 12.4642 10 12.4642V13.9642ZM2.5 19.7975H17.5V18.2975H2.5V19.7975Z" fill="black"/>
</svg>
